# xmcd CD database file
#
# Track frame offsets:
#	150
#	22202
#	46122
#	65375
#	81507
#	104567
#	122732
#	143825
#	166917
#	192175
#	211315
#	234755
#	256575
#	276927
#	294932
#
# Disc length: 4217 seconds
#
# Revision: 0
# Processed by: cddbd v1.5.1PL2 Copyright (c) Steve Scherf et al.
# Submitted via: CD2WAV32(JP) R3.22
#
DISCID=d210770f
DTITLE=arashi - 5×5
DYEAR=2005
DGENRE=JPop
TTITLE0=Ｈero
TTITLE1=瞳の中のＧalaxy
TTITLE2=途中下車
TTITLE3=ＲＩＧＨＴ　ＢＡＣＫ　ＴＯ　ＹＯＵ
TTITLE4=ＰＩＫＡ☆☆ＮＣＨＩ
TTITLE5=言葉より大切なもの
TTITLE6=ハダシの未来
TTITLE7=Ｌｕｃｋｙ　Ｍａｎ
TTITLE8=Ｂｌｕｅ
TTITLE9=とまどいながら
TTITLE10=冬のニオイ
TTITLE11=ＰＩＫＡ☆ＮＣＨＩ
TTITLE12=眠らないカラダ
TTITLE13=ナイスな心意気
TTITLE14=a Day in Our Life
EXTD=
EXTT0=
EXTT1=
EXTT2=
EXTT3=
EXTT4=
EXTT5=
EXTT6=
EXTT7=
EXTT8=
EXTT9=
EXTT10=
EXTT11=
EXTT12=
EXTT13=
EXTT14=
PLAYORDER=
